<svg class="img-fluid" id="outputsvg" xmlns="http://www.w3.org/2000/svg" width="1600" height="985" viewBox="0 0 16000 9850"><g id="l1YvhgOOWWVXsJr8unZU5GR" fill="rgb(233,233,233)" stroke="rgb(233,233,233)" stroke-width="10" style="transform: none;"><g style="transform: none;"><path id="pUs5e0LXx" d="M4950 8716 c0 -7 9 -25 21 -40 l20 -26 20 0 19 0 0 18 0 19 -23 21 -23 22 -17 0 -17 0 0 -14z"></path><path id="p3Fzqf9au" d="M4844 8645 l-6 -14 24 -30 c12 -16 33 -35 46 -42 l22 -13 11 11 11 11 -43 46 c-47 50 -57 54 -65 31z"></path><path id="p1BMKCU6eg" d="M4700 8596 l0 -15 84 -85 84 -86 16 0 16 0 0 15 0 15 -83 85 -84 85 -16 0 -17 0 0 -14z"></path><path id="pDHSXnfri" d="M4615 8499 l-7 -11 188 -189 c104 -104 192 -189 196 -189 5 0 11 7 14 15 l6 15 -183 185 -184 185 -12 0 c-6 0 -15 -5 -18 -11z"></path><path id="piljWXyEl" d="M4627 8313 c-4 -3 -7 -10 -7 -14 0 -4 311 -317 690 -695 l691 -689 14 -3 15 -3 0 17 0 18 -690 688 c-380 378 -694 688 -698 688 -5 0 -12 -3 -15 -7z"></path><path id="p19BpXFa8g" d="M4635 8110 l-6 -10 793 -790 793 -790 13 5 c6 2 12 9 12 14 0 6 -354 364 -787 796 l-788 785 -12 0 c-6 0 -15 -4 -18 -10z"></path><path id="ptCjaICZR" d="M14090 8062 l0 -18 63 -62 63 -62 12 0 12 0 0 18 0 18 -63 62 -63 62 -12 0 -12 0 0 -18z"></path><path id="p18ej9Buk1" d="M4644 7917 l-4 -13 740 -739 c407 -407 745 -741 750 -743 l10 -4 6 17 7 16 -742 739 c-408 407 -746 740 -752 740 -5 0 -12 -6 -15 -13z"></path><path id="p6Dczm4KT" d="M14100 7869 l0 -20 14 -15 c19 -18 32 -18 40 1 l6 15 -20 20 c-11 11 -24 20 -30 20 l-10 0 0 -21z"></path><path id="p1BScMLFCm" d="M13180 7864 l0 -16 38 -34 c20 -18 43 -34 50 -34 l12 0 0 14 0 14 -37 36 -37 36 -13 0 -13 0 0 -16z"></path><path id="p69aZqpOL" d="M14200 7768 l0 -23 20 -13 20 -12 7 16 6 17 -10 16 -10 16 -17 3 -16 3 0 -23z"></path><path id="pFXhu60Qc" d="M8343 7725 l-6 -16 308 -305 307 -305 11 4 12 4 0 12 0 12 -304 305 c-168 167 -309 304 -313 304 -5 0 -11 -7 -15 -15z"></path><path id="pfFrlNbQ" d="M13140 7722 l0 -18 180 -180 181 -179 11 0 11 0 5 13 4 14 -184 184 -185 184 -12 0 -11 0 0 -18z"></path><path id="p11TaMlybv" d="M13320 7724 l0 -16 40 -39 c44 -43 55 -47 64 -23 l6 15 -42 40 -41 39 -14 0 -13 0 0 -16z"></path><path id="pdva75hzc" d="M14434 7725 l-6 -15 12 -15 c7 -8 18 -15 25 -15 l13 0 6 15 5 14 -15 16 c-20 19 -33 19 -40 0z"></path><path id="plcdPlart" d="M4700 7674 l0 -16 671 -669 671 -669 9 6 c5 3 9 12 9 20 l0 15 -667 665 -667 664 -13 0 -13 0 0 -16z"></path><path id="pyZ7jEnv1" d="M5440 7666 l0 -24 16 -6 17 -6 13 11 13 11 -12 19 -12 19 -17 0 -18 0 0 -24z"></path><path id="p5mj86PHq" d="M8570 7677 l0 -14 135 -134 c75 -74 142 -135 149 -137 l14 -3 7 11 7 11 -139 139 -138 140 -17 0 -18 0 0 -13z"></path><path id="pwMPBg5bD" d="M13000 7677 l0 -14 254 -256 254 -257 16 0 16 0 0 16 0 15 -255 255 -256 254 -14 0 -15 0 0 -13z"></path><path id="pvtMbJptf" d="M8257 7643 c-4 -3 -7 -11 -7 -17 l0 -12 444 -444 c245 -244 452 -448 461 -452 l15 -9 7 17 6 16 -454 454 c-250 249 -457 454 -460 454 -3 0 -9 -3 -12 -7z"></path><path id="pDaBJIOlH" d="M14347 7643 c-4 -3 -7 -12 -7 -19 l0 -12 39 -41 c43 -45 56 -49 65 -25 l6 16 -44 44 c-47 47 -49 48 -59 37z"></path><path id="p079ELdpM" d="M12125 7630 l-7 -11 408 -405 407 -405 10 4 c6 2 12 8 14 13 l3 10 -400 400 -400 399 -14 3 -14 3 -7 -11z"></path><path id="pq2bxxAcp" d="M5546 7593 c-3 -4 -6 -14 -6 -23 l0 -18 15 -12 15 -12 15 12 14 12 -12 19 c-6 10 -17 21 -23 23 l-12 5 -6 -6z"></path><path id="p10wMVLqRi" d="M12917 7593 c-4 -3 -7 -15 -7 -25 l0 -18 9 0 c4 0 121 -112 259 -250 l251 -250 10 0 11 0 0 19 0 19 -196 193 c-108 107 -223 222 -257 257 -61 63 -68 67 -80 55z"></path><path id="p14cMjeCFH" d="M12040 7532 l0 -18 397 -397 398 -397 17 0 18 0 0 13 0 12 -395 394 c-217 217 -395 398 -395 402 l0 9 -20 0 -20 0 0 -18z"></path><path id="psd1XbQp7" d="M12404 7537 l-5 -14 141 -139 c78 -76 261 -259 407 -406 l266 -266 14 5 c7 3 13 10 13 16 l0 10 -405 404 -404 403 -11 0 c-6 0 -13 -6 -16 -13z"></path><path id="p3gaJNUyQ" d="M12787 7543 c-4 -3 -7 -12 -7 -19 l0 -13 277 -275 278 -276 12 0 13 0 0 15 0 16 -280 279 c-155 154 -282 280 -284 280 -1 0 -6 -3 -9 -7z"></path><path id="pPRl0TPHd" d="M8214 7487 l-5 -13 453 -452 453 -452 13 0 12 0 0 16 0 16 -451 449 c-247 247 -454 449 -460 449 -5 0 -12 -6 -15 -13z"></path><path id="p91Hs5Viy" d="M12643 7484 l-6 -16 307 -305 306 -305 12 4 13 5 0 11 0 12 -305 305 c-167 168 -308 305 -313 305 -4 0 -10 -7 -14 -16z"></path><path id="pJ8u0dlwJ" d="M4760 7434 l0 -16 545 -544 545 -544 16 0 15 0 -3 15 -3 16 -545 544 -545 545 -12 0 -13 0 0 -16z"></path><path id="pCIAA1hTI" d="M12007 7403 c-4 -3 -7 -12 -7 -18 l0 -12 375 -374 375 -374 15 -3 15 -3 0 13 0 14 -380 380 c-445 443 -385 385 -393 377z"></path><path id="p17SVk9rKi" d="M8127 7393 c-4 -3 -7 -9 -7 -13 0 -8 -48 41 518 -524 l481 -479 15 6 c9 4 16 10 16 14 0 5 -224 232 -498 506 l-498 497 -10 0 c-6 0 -14 -3 -17 -7z"></path><path id="pDNOWXyKH" d="M9280 7337 l0 -13 86 -87 85 -87 15 0 14 0 0 16 0 16 -86 84 -85 84 -15 0 -14 0 0 -13z"></path><path id="pYZfVAcQm" d="M4767 7254 l-6 -6 6 -14 c3 -8 228 -236 499 -507 l494 -492 12 0 11 0 4 12 5 13 -502 500 c-277 275 -506 500 -510 500 -3 0 -9 -3 -13 -6z"></path><path id="pI7YTExlH" d="M8093 7253 c-7 -2 -13 -8 -13 -12 0 -4 333 -340 740 -747 l739 -739 15 -3 14 -3 7 12 8 11 -746 744 c-410 409 -747 744 -749 743 -2 0 -9 -3 -15 -6z"></path><path id="p12s3sddEH" d="M11960 7243 l0 -18 260 -258 259 -259 10 7 c6 3 11 12 11 18 l0 12 -258 258 -258 257 -12 0 -12 0 0 -17z"></path><path id="pg2onSilW" d="M9247 7203 c-14 -14 -4 -27 101 -134 l109 -109 16 0 17 0 0 14 0 14 -112 111 c-62 61 -115 111 -119 111 -3 0 -9 -3 -12 -7z"></path><path id="pfTaFU1Px" d="M8050 7094 l0 -15 668 -664 c367 -366 670 -665 673 -665 4 0 10 7 13 16 l6 16 -667 664 -667 664 -13 0 -13 0 0 -16z"></path><path id="pn9kOqaYm" d="M4823 7004 l-6 -16 404 -404 404 -404 13 0 12 0 0 18 0 19 -394 393 c-217 216 -402 397 -411 402 l-15 9 -7 -17z"></path><path id="pGkBbSOKz" d="M9253 7004 l-6 -16 115 -114 115 -114 11 0 12 0 0 18 0 17 -113 113 c-62 61 -116 112 -120 112 -4 0 -10 -7 -14 -16z"></path><path id="poAJQP2z1" d="M8000 6957 l0 -14 650 -649 c1983 -1980 3936 -3924 3942 -3924 l8 0 0 21 0 21 -1080 1076 c-594 592 -1622 1618 -2284 2280 l-1205 1202 -15 0 -16 0 0 -13z"></path><path id="pLROk8ZFg" d="M4734 6909 l-7 -11 119 -121 c66 -66 130 -130 144 -143 14 -12 144 -141 290 -287 l264 -266 8 5 c4 3 8 13 8 22 l0 16 -400 398 c-220 219 -404 398 -410 398 -5 0 -12 -5 -16 -11z"></path><path id="p9raZv09V" d="M4646 6814 l-6 -16 393 -392 c215 -216 402 -398 413 -404 l21 -11 7 6 c3 3 6 9 6 13 0 10 -811 820 -821 820 -4 0 -10 -7 -13 -16z"></path><path id="petwUmOtw" d="M4562 6708 l1 -23 378 -374 378 -374 16 13 16 13 -373 374 c-205 205 -374 377 -376 383 l-4 10 -19 0 -19 0 2 -22z"></path><path id="pVnD2J93E" d="M8063 6714 l-6 -15 769 -765 c423 -420 773 -764 777 -764 4 0 10 7 13 15 l6 15 -766 765 c-422 421 -771 765 -777 765 -5 0 -12 -7 -16 -16z"></path><path id="pCDBX2Q9x" d="M13047 6723 c-12 -12 -8 -21 32 -62 l39 -41 16 0 16 0 0 11 c0 6 -16 31 -36 55 l-36 44 -13 0 c-6 0 -15 -3 -18 -7z"></path><path id="p1Bsmf7EMx" d="M4470 6617 l0 -14 375 -374 376 -374 14 -3 15 -3 0 16 0 16 -376 372 -375 372 -15 3 -14 3 0 -14z"></path><path id="pY8cG93Ui" d="M12220 6613 l0 -17 65 -63 65 -64 10 6 c5 3 10 12 10 18 l0 13 -63 62 -63 62 -12 0 -12 0 0 -17z"></path><path id="pHoDjCsUQ" d="M12090 6575 l-13 -16 20 -21 21 -20 11 6 c16 11 13 31 -8 50 l-18 17 -13 -16z"></path><path id="pMGqhqL2Q" d="M13004 6575 l-7 -17 114 -114 114 -114 14 2 c8 2 16 8 18 14 l3 10 -115 115 c-64 63 -120 115 -125 117 l-10 4 -6 -17z"></path><path id="paFA4QTpJ" d="M8025 6569 l-8 -11 527 -524 c289 -288 530 -524 535 -524 5 0 11 6 14 14 l6 14 -520 518 -519 519 -14 3 -14 3 -7 -12z"></path><path id="pR7qPQdZ9" d="M11900 6562 l0 -19 41 -36 c22 -21 45 -37 50 -37 l9 0 0 18 0 18 -36 37 -36 37 -14 0 -14 0 0 -18z"></path><path id="ppiwrGkWU" d="M12450 6567 l0 -12 41 -43 c45 -46 54 -50 63 -27 l6 15 -36 40 -36 40 -19 0 -19 0 0 -13z"></path><path id="pRetmOCKl" d="M13375 6570 l-6 -10 11 -20 11 -20 15 0 15 0 5 15 6 15 -12 15 c-14 17 -36 20 -45 5z"></path><path id="pVmtZcxo6" d="M4380 6518 l0 -13 354 -354 354 -354 16 6 c9 4 16 10 16 15 0 4 -158 165 -350 358 l-350 349 -20 3 -20 3 0 -13z"></path><path id="pk3E9I65J" d="M11760 6517 l0 -13 36 -37 36 -37 19 0 19 0 0 10 c0 5 -16 28 -36 50 l-36 40 -19 0 -19 0 0 -13z"></path><path id="p3Y23rsoD" d="M13240 6513 l0 -17 87 -83 86 -83 14 0 13 0 0 14 0 13 -83 87 -84 86 -16 0 -17 0 0 -17z"></path><path id="p1Fb42EgFl" d="M12920 6470 l0 -19 86 -83 c47 -46 92 -84 100 -86 l14 -3 0 17 0 17 -92 89 c-51 48 -96 88 -100 88 l-8 0 0 -20z"></path><path id="pbKrOS6of" d="M12180 6467 l0 -12 114 -114 114 -114 11 7 c6 4 11 12 11 18 l0 11 -107 109 -108 108 -17 0 -18 0 0 -13z"></path><path id="pZSx8ZGyd" d="M7986 6425 l-5 -15 502 -500 c276 -275 505 -500 509 -500 l8 0 0 21 0 20 -495 495 c-273 272 -500 494 -504 494 -5 0 -11 -7 -15 -15z"></path><path id="pYrhxdyhN" d="M11676 6431 l-6 -9 6 -15 c3 -9 13 -18 21 -22 l16 -6 10 10 9 9 -11 21 -12 21 -14 0 c-7 0 -16 -4 -19 -9z"></path><path id="phHkeuK5f" d="M11540 6373 l1 -18 34 -37 35 -38 15 0 15 0 0 19 0 19 -37 36 -37 36 -13 0 -13 0 0 -17z"></path><path id="p14LbSXWi1" d="M12462 6369 l3 -22 17 -11 17 -11 12 12 11 11 -11 21 -12 21 -20 0 -20 0 3 -21z"></path><path id="pn7o3Ch40" d="M12833 6374 l-6 -17 66 -64 66 -65 11 7 c5 3 10 12 10 20 l0 14 -62 60 c-35 34 -67 61 -71 61 -4 0 -10 -7 -14 -16z"></path><path id="piB9t6fDK" d="M13564 6375 l-6 -15 12 -15 12 -15 19 0 19 0 0 14 c0 8 -3 21 -6 30 l-6 16 -19 0 -20 0 -5 -15z"></path><path id="p1dhdhoFK" d="M4400 6327 l0 -24 276 -276 276 -277 14 0 14 0 0 17 0 16 -286 284 c-157 156 -288 283 -290 283 -2 0 -4 -11 -4 -23z"></path><path id="p16y9GgVP1" d="M9195 6329 l-7 -20 12 -14 c14 -17 36 -19 45 -5 l6 10 -10 19 c-6 10 -17 21 -25 24 l-15 6 -6 -20z"></path><path id="p8CeIs70J" d="M7900 6323 l0 -19 520 -518 519 -518 13 4 c6 2 13 9 15 14 l3 10 -520 520 -520 519 -15 3 -15 3 0 -18z"></path><path id="pUx7WiDjo" d="M11960 6322 l0 -18 112 -112 c61 -62 115 -112 120 -112 l8 0 0 23 0 22 -108 108 -108 107 -12 0 -12 0 0 -18z"></path><path id="pROSFSyMM" d="M12749 6284 l-13 -16 48 -45 47 -46 11 11 10 10 -10 18 c-6 11 -26 34 -45 52 l-34 33 -14 -17z"></path><path id="pkzJ6Rwmj" d="M11450 6276 l0 -15 65 -65 c35 -36 69 -66 75 -66 l10 0 0 23 0 22 -59 58 -59 57 -16 0 -16 0 0 -14z"></path><path id="pOtWmJggU" d="M11820 6276 l0 -13 155 -154 155 -154 14 -3 14 -3 7 11 6 10 -158 160 -158 160 -17 0 -18 0 0 -14z"></path><path id="p1smIS5Gn" d="M12194 6275 l-6 -15 67 -65 67 -65 9 6 c5 3 9 11 9 19 l0 14 -59 60 -58 61 -12 0 -12 0 -5 -15z"></path><path id="p5KwIxhgU" d="M9337 6185 l-6 -14 19 -23 19 -23 12 12 12 12 -11 26 -12 25 -14 0 -14 0 -5 -15z"></path><path id="pod7vxyOB" d="M11367 6193 c-4 -3 -7 -15 -7 -25 l0 -18 8 0 c4 0 44 -36 90 -80 45 -44 86 -80 92 -80 l10 0 0 19 0 18 -86 87 c-84 85 -94 92 -107 79z"></path><path id="pgdLu3F3O" d="M12474 6185 l-7 -16 39 -40 38 -39 12 0 c7 0 15 4 19 9 l5 10 -31 36 c-18 20 -40 40 -51 46 l-18 10 -6 -16z"></path><path id="pSK8sdenr" d="M7907 6143 c-4 -3 -7 -9 -7 -13 0 -8 -49 41 523 -529 l485 -483 11 7 c6 3 11 12 11 18 l0 12 -499 498 c-274 273 -503 497 -508 497 -5 0 -13 -3 -16 -7z"></path><path id="pZm1cg07l" d="M11784 6135 l-6 -15 12 -15 c14 -17 36 -20 45 -5 l6 10 -11 20 -11 20 -15 0 -15 0 -5 -15z"></path><path id="pOhypXZIW" d="M7220 6082 l0 -17 619 -619 619 -618 11 7 c6 3 11 12 11 18 l0 12 -618 618 -617 617 -13 0 -12 0 0 -18z"></path><path id="pzXk1TTkp" d="M7774 6085 l-6 -16 857 -854 857 -855 19 0 19 0 0 10 c0 12 -1720 1730 -1732 1730 -5 0 -11 -7 -14 -15z"></path><path id="p1Ffh29PrS" d="M9435 6090 l-6 -10 11 -20 11 -20 14 0 c7 0 17 4 20 10 l6 10 -11 20 -11 20 -14 0 c-7 0 -17 -4 -20 -10z"></path><path id="p6SxzsC5l" d="M11275 6090 l-6 -10 8 -14 c4 -8 25 -28 47 -45 l38 -31 9 6 c5 3 9 11 9 18 l0 12 -38 37 c-39 38 -56 45 -67 27z"></path><path id="pq6v4B5cS" d="M7457 6053 c-4 -3 -7 -12 -7 -19 l0 -13 570 -568 c314 -312 575 -569 580 -571 l10 -4 6 15 5 14 -576 574 c-317 316 -577 575 -579 577 -1 1 -6 -1 -9 -5z"></path><path id="pjujALX04" d="M4557 6004 c-4 -4 -7 -14 -7 -21 l0 -14 109 -110 109 -109 16 0 16 0 0 13 c0 17 -2 18 -126 140 l-110 108 -7 -7z"></path><path id="pxUCMpYsX" d="M7137 6003 c-4 -3 -7 -12 -7 -20 l0 -13 547 -545 547 -545 13 0 13 0 0 16 0 16 -551 549 c-302 302 -551 549 -553 549 -1 0 -6 -3 -9 -7z"></path><path id="pYy9yEg8m" d="M7693 6003 l-13 -5 0 -12 0 -11 545 -545 545 -545 15 -3 15 -3 0 24 0 25 -10 4 c-5 2 -252 244 -547 539 l-538 537 -12 -5z"></path><path id="pjTYSfxAq" d="M4410 5942 l0 -18 38 -37 38 -37 12 0 12 0 0 18 0 18 -38 37 -38 37 -12 0 -12 0 0 -18z"></path><path id="pRBjtRwNe" d="M10683 5944 l-6 -15 39 -40 38 -39 18 0 18 0 0 13 -1 12 -40 43 c-43 45 -56 51 -66 26z"></path><path id="pCo1Zex7q" d="M11420 5937 l0 -22 18 -12 19 -11 13 8 13 8 -17 26 -16 26 -15 0 -15 0 0 -23z"></path><path id="pTtGnMyPT" d="M12346 5944 l-6 -16 62 -64 61 -64 19 0 18 0 0 13 0 13 -68 67 c-37 37 -70 67 -74 67 -3 0 -9 -7 -12 -16z"></path><path id="p8Rr4VwJR" d="M7043 5894 l-6 -16 527 -524 527 -525 9 6 c6 3 10 12 10 18 l0 12 -522 523 c-288 287 -526 522 -531 522 -4 0 -10 -7 -14 -16z"></path><path id="pWAXNa7qG" d="M10550 5892 l0 -18 63 -62 63 -62 12 0 12 0 0 16 0 16 -64 64 c-35 35 -69 64 -75 64 l-11 0 0 -18z"></path><path id="pMlMbxFch" d="M4320 5842 l0 -18 12 -12 12 -12 18 0 18 0 0 18 0 18 -12 12 -12 12 -18 0 -18 0 0 -18z"></path><path id="pTdXvGs6N" d="M11700 5845 l0 -14 56 -56 c31 -30 64 -60 74 -65 l17 -9 7 6 c12 12 5 22 -59 87 l-66 66 -14 0 -15 0 0 -15z"></path><path id="pvxk9VSUP" d="M4190 5792 l0 -18 58 -57 58 -57 17 0 17 0 0 12 0 11 -62 64 -63 63 -12 0 -13 0 0 -18z"></path><path id="pkUamVJHd" d="M6950 5797 l0 -12 520 -520 520 -520 14 -3 14 -3 7 11 7 12 -523 524 -524 524 -17 0 -18 0 0 -13z"></path><path id="pEqUy45Xf" d="M11380 5794 l0 -16 160 -160 159 -160 13 4 c6 2 13 9 15 15 l4 11 -160 161 -159 161 -16 0 -16 0 0 -16z"></path><path id="pEK0E9xda" d="M12300 5796 l0 -15 38 -35 c38 -36 56 -44 67 -27 l5 10 -37 40 -37 41 -18 0 -18 0 0 -14z"></path><path id="pUiSPpf7" d="M10510 5755 l-13 -16 1559 -1555 c857 -855 1567 -1559 1577 -1565 l17 -10 6 16 6 15 -1568 1565 c-863 861 -1570 1565 -1570 1565 -1 0 -7 -7 -14 -15z"></path><path id="pgALZnt39" d="M11610 5745 l0 -15 88 -85 87 -85 13 0 12 0 0 16 0 15 -83 85 -83 84 -17 0 -17 0 0 -15z"></path><path id="pXgxi44lV" d="M4100 5701 l0 -19 61 -61 62 -61 13 0 14 0 0 18 0 17 -65 63 c-35 34 -69 62 -75 62 l-10 0 0 -19z"></path><path id="pn8kEXCuV" d="M4884 5655 l-6 -15 12 -15 12 -15 19 0 19 0 0 18 0 18 -12 12 c-7 7 -18 12 -25 12 l-14 0 -5 -15z"></path><path id="p111MKibzM" d="M6916 5653 l-7 -17 526 -524 526 -523 11 3 c7 3 13 9 15 15 l4 10 -525 524 c-289 288 -529 525 -534 527 l-10 3 -6 -18z"></path><path id="pbutQTll9" d="M10420 5652 l0 -19 1535 -1531 1535 -1532 15 0 15 0 0 14 0 14 -172 172 c-95 94 -788 785 -1539 1536 l-1366 1364 -12 0 -11 0 0 -18z"></path><path id="paTGGecyk" d="M11347 5664 c-4 -4 -7 -11 -7 -16 0 -6 202 -212 449 -459 l450 -449 15 0 16 0 0 13 0 12 -450 450 c-247 248 -453 451 -458 453 -5 1 -11 -1 -15 -4z"></path><path id="pceiJ3oNF" d="M12265 5660 l-6 -10 10 -17 c5 -10 23 -30 39 -45 l30 -28 16 0 16 0 0 13 0 14 -41 41 c-42 43 -53 49 -64 32z"></path><path id="pKa60HVZO" d="M3983 5634 l-6 -17 66 -64 67 -65 15 6 16 6 -10 18 c-13 25 -121 132 -132 132 -5 0 -12 -7 -16 -16z"></path><path id="p19Z5UHPSY" d="M4567 5613 c-13 -12 -7 -24 33 -63 44 -43 57 -48 66 -26 l6 14 -40 41 c-39 40 -52 47 -65 34z"></path><path id="pWAIHHIKr" d="M4750 5606 c0 -8 3 -21 6 -30 l6 -16 19 0 19 0 0 24 0 24 -16 6 c-9 3 -20 6 -25 6 l-9 0 0 -14z"></path><path id="pNXzXEUEZ" d="M9545 5609 c-4 -6 -5 -12 -4 -14 2 -3 76 -77 164 -165 l159 -160 13 0 13 0 0 17 0 17 -159 158 c-88 87 -164 158 -170 158 -5 0 -13 -5 -16 -11z"></path><path id="p4nJTqg3d" d="M3840 5591 l0 -20 132 -130 131 -131 14 0 13 0 0 17 0 17 -132 133 -132 133 -13 0 -13 0 0 -19z"></path><path id="pI8TAUWYx" d="M11250 5557 l0 -13 475 -474 475 -475 12 0 c6 0 13 5 15 12 l4 11 -476 476 -476 476 -14 0 -15 0 0 -13z"></path><path id="phLwSJSSi" d="M3745 5510 l-6 -10 10 -17 c13 -25 67 -73 80 -73 l11 0 0 23 0 23 -36 32 c-38 34 -49 38 -59 22z"></path><path id="pWVyvvX2X" d="M4480 5502 l0 -18 39 -38 39 -38 11 6 c6 4 11 13 11 20 l0 12 -38 37 -38 37 -12 0 -12 0 0 -18z"></path><path id="pRYVH9xTD" d="M10380 5506 l0 -13 920 -919 c507 -506 1187 -1185 1513 -1511 326 -326 596 -593 600 -593 4 0 10 7 14 16 l6 16 -1514 1509 -1514 1509 -12 0 -13 0 0 -14z"></path><path id="pgiVJtleT" d="M11850 5512 c0 -5 9 -20 19 -33 l20 -24 13 13 13 13 -11 17 -11 17 -22 3 -21 3 0 -9z"></path><path id="p6J9dDosz" d="M12220 5507 l0 -13 44 -43 44 -43 11 6 c18 11 13 23 -26 66 l-37 40 -18 0 -18 0 0 -13z"></path><path id="pnbrrUCXo" d="M3600 5460 l0 -21 62 -59 c66 -64 75 -69 84 -45 l6 15 -63 65 -64 65 -12 0 -13 0 0 -20z"></path><path id="pjdSuADSg" d="M6920 5462 l0 -18 425 -425 425 -424 15 -3 15 -3 0 18 0 18 -428 428 -428 427 -12 0 -12 0 0 -18z"></path><path id="p17SIMg3YA" d="M9140 5455 l0 -16 840 -837 c462 -460 1185 -1182 1608 -1604 l768 -768 12 0 12 0 0 18 0 17 -1607 1602 -1608 1603 -12 0 -13 0 0 -15z"></path><path id="pnBmkni5B" d="M3450 5423 l0 -18 185 -184 184 -183 16 6 15 5 0 11 0 11 -185 184 -185 185 -15 0 -15 0 0 -17z"></path><path id="pxWV4Fbc9" d="M10295 5413 l-6 -18 1492 -1488 1493 -1487 10 3 c5 2 11 8 13 14 l4 10 -1281 1279 c-704 703 -1376 1374 -1493 1491 -116 117 -214 213 -218 213 -4 0 -10 -8 -14 -17z"></path><path id="p14AQMvBgW" d="M11220 5408 l0 -23 856 -852 856 -853 14 0 14 0 0 14 0 14 -860 858 c-474 473 -865 861 -870 862 l-10 4 0 -24z"></path><path id="pYt3FojsZ" d="M4444 5365 l-6 -15 33 -39 34 -39 18 -1 17 -1 0 18 0 18 -38 37 c-42 41 -50 44 -58 22z"></path><path id="pTdwFmytH" d="M9052 5360 l3 -20 582 -583 c320 -320 1021 -1020 1557 -1555 l975 -972 15 0 16 0 0 14 0 14 -730 728 c-402 401 -1106 1104 -1564 1562 l-834 832 -12 0 -11 0 3 -20z"></path><path id="pPOpCEHBE" d="M11820 5360 l0 -19 231 -231 c128 -126 236 -230 240 -230 l9 0 0 21 0 20 -230 230 c-126 126 -234 229 -240 229 l-10 0 0 -20z"></path><path id="pDjpMBJAE" d="M4273 5344 l-6 -16 42 -39 42 -39 14 0 15 0 0 13 0 14 -41 41 c-44 46 -56 50 -66 26z"></path><path id="pGsETJr0o" d="M6880 5316 l0 -14 305 -304 305 -303 15 -3 15 -3 0 16 0 16 -304 305 -304 304 -16 0 -16 0 0 -14z"></path><path id="pk12kZW3V" d="M11124 5319 l-7 -11 1327 -1324 c730 -728 1331 -1324 1337 -1324 l9 0 0 18 0 18 -557 557 c-1756 1751 -2084 2077 -2093 2077 -5 0 -12 -5 -16 -11z"></path><path id="pjZ4Sq12S" d="M12237 5323 c-8 -14 8 -40 46 -73 l38 -33 10 10 11 11 -11 20 c-12 22 -68 72 -81 72 -5 0 -11 -3 -13 -7z"></path><path id="plpUJtSrH" d="M3400 5293 l0 -17 911 -908 c501 -499 915 -908 920 -908 l9 0 0 18 0 19 -907 906 -908 907 -12 0 -13 0 0 -17z"></path><path id="paRyt6ibu" d="M10250 5266 l0 -15 1246 -1243 c685 -684 1346 -1344 1470 -1468 l225 -225 9 15 c5 8 10 17 10 20 0 6 -124 130 -1814 1815 l-1120 1115 -13 0 -13 0 0 -14z"></path><path id="phrJNgRgW" d="M12100 5262 l0 -17 83 -83 82 -82 18 0 17 0 0 13 0 12 -80 80 c-44 43 -80 83 -80 87 l0 8 -20 0 -20 0 0 -18z"></path><path id="p11VTT69CI" d="M10127 5233 c-4 -3 -7 -14 -7 -22 l0 -17 1366 -1359 1366 -1360 14 -3 14 -3 0 13 0 14 -1371 1370 c-753 753 -1371 1370 -1373 1372 -1 1 -6 -1 -9 -5z"></path><path id="pwj30IwXF" d="M9010 5215 l0 -16 1406 -1402 c773 -771 1442 -1439 1487 -1484 l81 -83 13 0 13 0 0 18 0 17 -1486 1483 -1486 1482 -14 0 -14 0 0 -15z"></path><path id="pTPr7lT0X" d="M9930 5217 l0 -13 1370 -1368 1369 -1368 13 4 13 5 0 11 0 12 -157 158 c-87 86 -702 700 -1367 1365 l-1209 1207 -16 0 -16 0 0 -13z"></path><path id="pgNiAHGU4" d="M3307 5213 c-4 -3 -7 -10 -7 -14 0 -5 410 -417 910 -916 l910 -908 15 -3 15 -3 0 16 0 17 -911 909 c-501 500 -914 909 -918 909 -4 0 -11 -3 -14 -7z"></path><path id="pzZT1jz7v" d="M4418 5204 l-7 -6 6 -16 c8 -20 23 -32 41 -32 l13 0 -3 28 -3 27 -20 3 c-12 2 -24 0 -27 -4z"></path><path id="p11OADXDND" d="M3162 5153 l3 -28 19 -3 18 -4 10 10 10 10 -11 21 -12 21 -20 0 -20 0 3 -27z"></path><path id="pdYVGFVr7" d="M9667 5133 c-4 -3 -7 -11 -7 -17 l0 -12 818 -816 c449 -450 1098 -1097 1441 -1438 l624 -621 11 4 c5 2 11 8 13 14 l4 11 -15 13 c-7 8 -657 656 -1443 1442 -786 785 -1432 1427 -1435 1427 -2 0 -8 -3 -11 -7z"></path><path id="plpupLEnq" d="M4320 5108 l0 -21 38 -34 c38 -34 56 -40 67 -23 l7 11 -45 44 c-24 25 -49 45 -56 45 l-11 0 0 -22z"></path><path id="p10PMe5PRe" d="M3060 5071 l0 -20 23 -16 c12 -8 313 -305 668 -660 l646 -645 11 0 12 0 0 17 0 17 -665 663 -665 663 -15 0 -15 0 0 -19z"></path><path id="pn37NqmJO" d="M3260 5075 l-13 -16 917 -915 917 -915 9 6 c6 3 10 12 10 20 l0 14 -911 908 c-501 499 -912 909 -913 911 -2 1 -9 -5 -16 -13z"></path><path id="p17LXsk94w" d="M8973 5074 l-6 -16 236 -235 236 -235 11 7 c5 3 10 12 10 19 l0 12 -201 200 c-111 109 -215 214 -232 232 -34 36 -45 39 -54 16z"></path><path id="pq9gpQjSs" d="M4037 5043 c-4 -3 -7 -11 -7 -18 l0 -11 285 -285 c157 -156 381 -380 498 -496 l212 -213 12 0 13 0 0 18 0 17 -499 498 c-274 273 -500 497 -503 497 -2 0 -8 -3 -11 -7z"></path><path id="pdrxvQIol" d="M3891 4996 l-12 -14 723 -721 c397 -397 725 -721 729 -721 4 0 10 7 13 16 l6 17 -722 718 c-397 396 -723 719 -724 719 -1 0 -7 -6 -13 -14z"></path><path id="pnuWgduRl" d="M4274 4976 l-5 -13 162 -162 162 -162 14 5 c7 3 13 10 13 15 0 12 -318 331 -331 331 -5 0 -12 -6 -15 -14z"></path><path id="plDcPkm6P" d="M3017 4954 c-4 -4 -7 -12 -7 -17 0 -6 300 -309 666 -674 l667 -663 18 0 19 0 0 9 c0 9 -1334 1344 -1348 1349 -5 1 -11 -1 -15 -4z"></path><path id="pTymcDiTr" d="M12620 4927 l0 -14 157 -156 157 -157 13 0 13 0 0 16 0 15 -156 155 -155 154 -15 0 -14 0 0 -13z"></path><path id="pJ4taQiqj" d="M2920 4852 l0 -18 659 -658 c636 -635 677 -676 694 -676 l7 0 0 18 0 18 -669 667 -670 667 -10 0 -11 0 0 -18z"></path><path id="pZnRWPrFP" d="M7183 4834 l-6 -16 21 -21 22 -21 12 12 11 11 -11 26 -12 25 -15 0 -16 0 -6 -16z"></path><path id="p1D1kgwAFb" d="M12584 4785 l-6 -15 12 -15 12 -15 19 0 19 0 0 13 c-1 17 -25 47 -39 47 l-12 0 -5 -15z"></path><path id="p19MaoQHVj" d="M12957 4793 c-4 -3 -7 -12 -7 -19 l0 -12 63 -61 62 -61 13 0 12 0 0 18 0 18 -63 62 c-64 64 -69 67 -80 55z"></path><path id="p6G4KcxiZ" d="M2820 4767 l0 -15 646 -644 c355 -353 647 -644 648 -646 2 -1 8 4 15 12 l11 14 -645 643 -645 644 -15 3 -15 3 0 -14z"></path><path id="px0EnDrl8" d="M7283 4734 l-6 -16 210 -209 210 -209 12 0 12 0 -3 20 -3 20 -204 205 c-113 113 -209 205 -213 205 -5 0 -11 -7 -15 -16z"></path><path id="pbrU261tf" d="M8574 4735 l-7 -17 16 -15 15 -16 17 7 17 6 -14 22 c-8 12 -20 24 -26 26 l-12 4 -6 -17z"></path><path id="p1ANnDlPTq" d="M8943 4734 l-6 -16 236 -235 235 -235 12 7 11 7 -3 14 -3 14 -230 230 c-126 126 -233 230 -237 230 -5 0 -11 -7 -15 -16z"></path><path id="pJlVzzA72" d="M8800 4687 l0 -13 288 -287 c158 -158 806 -804 1441 -1437 l1154 -1150 13 0 14 0 0 14 0 13 -595 594 c-328 327 -975 973 -1440 1437 l-844 842 -16 0 -15 0 0 -13z"></path><path id="peJMjK3dy" d="M12500 4684 l0 -15 32 -40 31 -39 14 0 14 0 6 16 6 15 -41 40 c-23 21 -46 39 -52 39 l-10 0 0 -16z"></path><path id="pcIJt5UDQ" d="M7197 4644 l-6 -6 6 -15 c3 -8 248 -256 545 -551 l538 -537 13 0 12 0 2 15 3 15 -544 543 c-299 298 -548 542 -553 542 -5 0 -12 -3 -16 -6z"></path><path id="pJypcx7P7" d="M8114 4639 l-6 -11 63 -64 63 -64 13 0 13 0 0 17 0 17 -57 58 -57 58 -13 0 c-6 0 -15 -5 -19 -11z"></path><path id="prsKr3v8p" d="M8670 4633 l0 -18 134 -132 134 -133 11 0 11 0 0 19 0 19 -130 129 -131 128 -14 3 -15 3 0 -18z"></path><path id="piMeNCI7m" d="M2770 4628 l0 -13 594 -592 593 -593 17 0 16 0 0 13 0 12 -590 590 -590 590 -20 3 -20 3 0 -13z"></path><path id="p13TgKyUY3" d="M8400 4539 l0 -21 40 -40 41 -39 9 6 c17 11 10 29 -29 73 l-39 42 -11 0 -11 0 0 -21z"></path><path id="p1B48u8dGh" d="M8583 4544 l-6 -16 74 -76 c89 -91 100 -101 117 -102 l12 0 0 17 0 16 -87 89 c-48 48 -91 88 -95 88 -5 0 -11 -7 -15 -16z"></path><path id="pokHeBw3V" d="M12457 4553 c-4 -3 -7 -10 -7 -15 0 -4 127 -134 282 -288 l282 -280 13 0 13 0 0 13 0 13 -281 282 c-155 155 -285 282 -289 282 -4 0 -10 -3 -13 -7z"></path><path id="prvFu4ni9" d="M13007 4553 c-12 -12 -7 -20 35 -62 l43 -41 12 0 13 0 0 16 0 16 -37 39 -37 39 -11 0 c-7 0 -15 -3 -18 -7z"></path><path id="poHCm4v4T" d="M2724 4496 l-5 -14 573 -571 573 -571 12 0 c6 0 15 5 18 10 l6 10 -577 575 c-317 316 -581 575 -586 575 -5 0 -11 -6 -14 -14z"></path><path id="pWIvs5u1" d="M7895 4500 l-6 -10 6 -19 6 -19 15 -6 16 -6 9 6 c14 8 11 31 -7 48 -18 18 -30 20 -39 6z"></path><path id="pJZ1tgmjg" d="M12320 4491 l0 -18 395 -394 395 -394 20 -3 20 -3 0 11 0 12 -404 404 -405 404 -10 0 -11 0 0 -19z"></path><path id="pNEydkZ9V" d="M7200 4444 l0 -16 110 -109 110 -109 15 0 15 0 0 15 0 15 -112 110 -113 110 -12 0 -13 0 0 -16z"></path><path id="p1CPLRkZxR" d="M8120 4441 l0 -19 40 -36 40 -36 15 0 15 0 0 18 0 17 -39 38 -38 37 -17 0 -16 0 0 -19z"></path><path id="pUs0ecKlc" d="M8304 4449 l-7 -12 936 -933 935 -934 16 0 16 0 0 13 0 13 -791 790 c-434 434 -854 853 -932 932 l-141 142 -12 0 c-7 0 -16 -5 -20 -11z"></path><path id="p12bsCQFpf" d="M9600 4444 l0 -16 1103 -1099 1102 -1099 9 3 c6 2 11 8 14 15 l3 11 -1103 1101 -1103 1100 -12 0 -13 0 0 -16z"></path><path id="p1C7Qm1YgU" d="M12970 4405 l-12 -15 90 -90 91 -90 16 0 15 0 0 13 0 12 -93 93 -94 93 -13 -16z"></path><path id="p16DaRuhK6" d="M8540 4397 l0 -12 60 -63 60 -62 15 0 15 0 0 14 0 14 -60 61 -61 61 -14 0 -15 0 0 -13z"></path><path id="puVKkoJgr" d="M8047 4363 c-4 -3 -7 -14 -7 -23 l0 -16 33 -32 33 -32 17 0 17 0 0 13 0 12 -41 43 c-44 46 -43 45 -52 35z"></path><path id="pcE8qpffy" d="M13200 4347 l0 -24 25 -11 26 -12 6 17 6 16 -22 19 c-13 10 -27 18 -32 18 l-9 0 0 -23z"></path><path id="p11Aag3U9x" d="M2724 4315 l-7 -16 844 -839 c464 -462 847 -840 852 -840 l7 0 0 18 0 18 -830 829 c-456 456 -836 833 -845 837 l-15 9 -6 -16z"></path><path id="pjXNyFE6z" d="M7900 4303 l0 -18 61 -62 c65 -67 76 -73 86 -47 l6 16 -66 64 c-36 35 -70 64 -76 64 l-11 0 0 -17z"></path><path id="p15fOcBK8W" d="M8271 4306 l-12 -14 911 -909 c501 -499 915 -909 920 -911 l10 -4 6 17 7 16 -901 897 c-495 494 -907 903 -915 910 l-14 12 -12 -14z"></path><path id="pFFEQsWke" d="M9563 4305 c-3 -9 -4 -18 -2 -20 12 -13 816 -818 1552 -1552 l844 -843 12 0 11 0 0 18 0 19 -97 96 c-54 53 -594 591 -1200 1197 -607 605 -1105 1100 -1108 1100 -3 0 -8 -7 -12 -15z"></path><path id="p8ujn8lYe" d="M5000 4252 l0 -18 180 -180 180 -179 15 -3 15 -3 0 17 0 17 -185 183 c-102 101 -190 184 -195 184 l-10 0 0 -18z"></path><path id="pr19SPEyZ" d="M7217 4263 c-4 -3 -7 -14 -7 -24 l0 -17 16 -6 c9 -3 20 -6 25 -6 l9 0 0 18 0 18 -12 12 c-14 14 -22 15 -31 5z"></path><path id="pESXfy6GV" d="M7763 4255 l-6 -17 767 -764 767 -763 14 6 c8 3 15 9 15 13 0 10 -1525 1533 -1540 1538 l-10 4 -7 -17z"></path><path id="pMbB8q29k" d="M8180 4204 l0 -18 812 -808 812 -808 13 0 13 0 0 13 0 13 -810 809 -810 810 -15 3 -15 3 0 -17z"></path><path id="pKbLNK7TS" d="M8920 4203 l0 -19 690 -688 689 -688 13 4 c6 2 13 9 15 14 l3 9 -690 690 -690 690 -15 3 -15 3 0 -18z"></path><path id="ph8QrlMA8" d="M9100 4204 l0 -16 1151 -1146 c632 -631 1154 -1148 1160 -1150 l9 -4 6 16 6 16 -1153 1150 -1152 1150 -14 0 -13 0 0 -16z"></path><path id="p1BoL5wied" d="M9520 4146 l0 -25 21 -6 21 -7 10 10 10 10 -14 21 -13 21 -17 0 -18 0 0 -24z"></path><path id="pKLvgU6Db" d="M2724 4129 l-7 -11 694 -694 694 -694 14 2 c8 2 16 8 18 13 l3 10 -694 693 -693 692 -11 0 c-6 0 -14 -5 -18 -11z"></path><path id="p1Ne5uQ3e" d="M8096 4113 l-7 -17 738 -738 738 -738 18 0 17 0 0 13 0 12 -743 743 c-408 408 -745 742 -749 742 -3 0 -9 -8 -12 -17z"></path><path id="p1GLI0ta76" d="M7540 4105 l0 -15 257 -255 256 -256 11 4 c5 2 11 8 13 14 l4 11 -256 256 -255 256 -15 0 -15 0 0 -15z"></path><path id="p5TWWSthx" d="M8830 4107 l0 -13 676 -674 c372 -371 715 -714 762 -762 l87 -88 12 0 13 0 0 17 0 16 -762 758 -763 759 -12 0 -13 0 0 -13z"></path><path id="peU980VBm" d="M13076 4111 l-6 -9 6 -15 c3 -9 13 -18 21 -22 l16 -6 10 10 9 9 -11 21 -12 21 -14 0 c-7 0 -16 -4 -19 -9z"></path><path id="pAEn2IfmV" d="M9620 4058 l0 -21 1078 -1073 1077 -1074 13 0 12 0 0 17 0 17 -1082 1078 c-596 593 -1086 1078 -1090 1078 l-8 0 0 -22z"></path><path id="ptjt1MfTM" d="M5380 4050 c0 -5 16 -28 36 -50 l36 -40 19 0 19 0 0 13 0 13 -38 37 -38 37 -17 0 -17 0 0 -10z"></path><path id="pq0dt8Y6" d="M7452 4010 l3 -19 109 -111 c60 -60 113 -110 118 -110 5 0 11 7 15 16 l6 16 -114 114 -114 113 -13 1 -13 0 3 -20z"></path><path id="pCL8d3z2S" d="M13176 4023 c-3 -4 -6 -15 -6 -25 l0 -19 15 -5 15 -6 15 6 16 6 -10 19 c-6 10 -17 21 -25 24 l-14 6 -6 -6z"></path><path id="phyqAwnQU" d="M2680 3983 l0 -16 666 -664 c366 -364 670 -663 675 -663 5 0 12 6 15 14 l5 14 -667 666 -668 666 -13 0 -13 0 0 -17z"></path><path id="pLbfFNdic" d="M5100 3966 l0 -24 15 -12 14 -12 11 7 10 6 0 19 0 19 -19 11 c-28 14 -31 13 -31 -14z"></path><path id="pT7hSuGq3" d="M7360 3912 l0 -18 12 -12 12 -12 18 0 18 0 0 11 c0 6 -5 19 -10 30 l-11 19 -19 0 -20 0 0 -18z"></path><path id="p9mWVHF4p" d="M13084 3915 l-6 -15 42 -38 c44 -38 61 -45 67 -26 l3 10 -42 42 c-46 46 -56 50 -64 27z"></path><path id="pQKRG2L7f" d="M2580 3902 l0 -18 694 -693 695 -693 10 7 c6 3 11 12 11 18 l0 12 -693 693 -692 692 -13 0 -12 0 0 -18z"></path><path id="pmA3C8dxK" d="M5196 3874 l-6 -16 87 -89 87 -89 12 0 12 0 5 14 5 13 -90 92 c-50 50 -95 91 -99 91 -4 0 -10 -7 -13 -16z"></path><path id="p1Bu78AOBc" d="M13680 3867 l0 -13 63 -62 63 -62 17 0 17 0 0 11 0 11 -62 64 -63 64 -17 0 -18 0 0 -13z"></path><path id="p17u1EX4U6" d="M7467 3833 c-4 -3 -7 -12 -7 -20 l0 -13 56 -60 57 -60 18 0 19 0 0 16 0 15 -65 65 c-70 69 -68 67 -78 57z"></path><path id="p1DUJSBdyL" d="M7280 3813 l0 -18 134 -132 c73 -73 138 -133 144 -133 5 0 12 6 15 14 l5 13 -137 137 -136 136 -13 0 -12 0 0 -17z"></path><path id="pbI7psclF" d="M13600 3769 l0 -21 134 -134 c74 -74 138 -134 144 -134 5 0 12 6 15 14 l5 13 -140 142 c-77 77 -144 141 -149 141 l-9 0 0 -21z"></path><path id="pCtujGn7P" d="M2537 3773 c-4 -3 -7 -9 -7 -12 0 -4 223 -229 495 -501 l495 -495 15 -3 15 -3 0 17 0 18 -495 493 c-272 271 -498 493 -503 493 -5 0 -12 -3 -15 -7z"></path><path id="p1CEVYVBwT" d="M7140 3768 l1 -13 58 -62 58 -63 16 0 17 0 0 16 0 15 -58 60 -58 59 -17 0 -17 0 0 -12z"></path><path id="pXg5Z1rIh" d="M2390 3723 l0 -18 449 -449 449 -448 12 7 11 7 -3 14 c-3 15 -50 63 -551 562 l-344 342 -11 0 -12 0 0 -17z"></path><path id="pP6tXWeOQ" d="M7746 3723 l-7 -17 103 -102 c56 -57 104 -108 106 -113 l4 -11 14 0 15 0 6 15 5 16 -113 114 c-63 63 -117 115 -120 115 -4 0 -10 -8 -13 -17z"></path><path id="pZsuzv0kR" d="M1324 3685 l-6 -15 502 -500 503 -501 10 4 c6 2 13 9 15 15 l4 12 -504 500 c-277 275 -507 500 -511 500 -4 0 -10 -7 -13 -15z"></path><path id="pKCTzUDoI" d="M4464 3675 l-6 -15 29 -24 c15 -13 101 -97 190 -186 l162 -162 11 7 c5 3 10 12 10 19 l0 14 -121 118 c-67 66 -149 147 -182 182 l-61 62 -13 0 -14 0 -5 -15z"></path><path id="pCFufkLCG" d="M7050 3672 l0 -17 89 -89 89 -88 11 7 12 7 -3 13 c-2 8 -41 53 -87 100 l-84 85 -13 0 -14 0 0 -18z"></path><path id="pD8OCJ1vt" d="M2352 3602 l-12 -4 0 -12 0 -13 376 -376 375 -377 15 0 14 0 0 18 0 17 -378 376 -378 375 -12 -4z"></path><path id="p11FEgPSrt" d="M1623 3593 l-13 -5 0 -18 0 -18 15 -12 15 -12 15 6 15 5 0 14 0 14 -17 15 -18 15 -12 -4z"></path><path id="plD0LxFCF" d="M13604 3579 l-6 -11 58 -60 c33 -33 67 -64 77 -69 l17 -10 6 16 7 16 -64 65 -64 64 -12 0 c-6 0 -15 -5 -19 -11z"></path><path id="p1DY5GZKfT" d="M7380 3524 l0 -16 42 -38 43 -38 7 4 c5 3 8 12 8 19 l0 14 -31 36 -31 35 -19 0 -19 0 0 -16z"></path><path id="pn9keJXkq" d="M1320 3503 l0 -18 378 -378 377 -377 13 0 12 0 0 18 0 18 -375 374 -375 375 -15 3 -15 3 0 -18z"></path><path id="pA5In5DUQ" d="M2247 3513 c-4 -3 -7 -11 -7 -16 0 -5 280 -288 622 -628 l621 -620 11 4 c5 2 11 8 14 15 l3 11 -623 621 c-342 341 -625 620 -629 620 -3 0 -9 -3 -12 -7z"></path><path id="piPAgEbfi" d="M8355 3490 l-6 -10 10 -17 c5 -10 131 -138 278 -285 l269 -268 17 0 17 0 0 13 0 12 -236 235 c-129 129 -255 256 -280 283 -46 48 -58 55 -69 37z"></path><path id="pQtggNZMP" d="M1180 3462 l0 -19 375 -374 376 -374 14 -3 15 -3 0 15 0 16 -375 372 c-206 204 -381 376 -390 380 l-15 9 0 -19z"></path><path id="p5nUtoZqt" d="M2100 3462 l0 -18 395 -394 394 -395 21 -3 20 -3 -7 18 -6 18 -399 398 c-219 218 -402 397 -408 397 l-10 0 0 -18z"></path><path id="pTSrIxumZ" d="M7300 3429 l0 -20 59 -61 59 -61 16 6 c9 4 16 10 16 15 0 12 -129 142 -141 142 l-9 0 0 -21z"></path><path id="ph18tlw3y" d="M7850 3432 l0 -18 275 -274 c151 -151 279 -276 286 -279 l11 -3 9 13 8 14 -283 282 -284 283 -11 0 -11 0 0 -18z"></path><path id="pT67Sdrwy" d="M8033 3434 l-6 -16 135 -134 134 -134 17 0 17 0 0 12 0 11 -137 139 c-76 76 -142 138 -146 138 -4 0 -10 -7 -14 -16z"></path><path id="pXjUAGbgF" d="M13573 3443 l-13 -5 0 -14 0 -14 25 -12 25 -11 7 6 6 7 -11 25 c-12 25 -17 28 -39 18z"></path><path id="ptDBG1Vab" d="M13937 3443 c-4 -3 -7 -10 -7 -15 0 -5 137 -146 305 -314 l305 -304 15 0 15 0 0 14 0 14 -306 306 c-169 168 -310 306 -314 306 -4 0 -10 -3 -13 -7z"></path><path id="pNvuwg8bj" d="M4560 3394 l0 -17 112 -108 113 -109 12 0 13 0 0 15 0 15 -110 110 -110 110 -15 0 -15 0 0 -16z"></path><path id="psnwxUXFj" d="M13250 3382 l0 -19 327 -327 327 -326 10 3 c5 2 12 9 14 15 l4 12 -331 330 c-182 182 -335 330 -341 330 l-10 0 0 -18z"></path><path id="pqAFqlMg0" d="M13437 3393 c-11 -11 -8 -31 7 -45 8 -7 157 -155 330 -328 l316 -314 15 15 15 14 -333 333 c-183 182 -336 332 -338 332 -3 0 -9 -3 -12 -7z"></path><path id="pi0UxGFVZ" d="M14170 3383 l0 -18 252 -252 253 -253 17 0 18 0 0 13 0 12 -259 258 -258 257 -12 0 -11 0 0 -17z"></path><path id="pWRCV47Dm" d="M2000 3373 l0 -18 355 -353 354 -354 10 7 c6 3 11 12 11 20 l0 14 -352 350 -352 351 -13 0 -13 0 0 -17z"></path><path id="p17xLlc0qu" d="M1859 3348 c-2 -24 3 -43 13 -49 6 -4 162 -158 348 -343 l338 -336 11 0 c5 0 13 5 17 11 l6 11 -358 359 c-198 197 -362 359 -366 359 -5 0 -9 -6 -9 -12z"></path><path id="p9sFkT0JA" d="M7760 3335 l0 -14 477 -476 477 -476 14 15 14 14 -478 476 -479 476 -12 0 -13 0 0 -15z"></path><path id="p4mhEd3Rn" d="M1130 3322 l0 -19 40 -37 40 -37 10 6 c6 3 10 12 10 19 l0 12 -38 37 -38 37 -12 0 -12 0 0 -18z"></path><path id="pYfftzU7L" d="M13710 3286 l0 -13 280 -279 c155 -153 285 -280 290 -282 l10 -4 6 16 6 16 -280 280 -280 280 -16 0 -16 0 0 -14z"></path><path id="phBMqkZso" d="M14450 3285 l0 -15 34 -35 34 -35 16 0 16 0 0 13 0 13 -38 37 -38 37 -12 0 -12 0 0 -15z"></path><path id="pD72BBqsc" d="M4517 3274 l-6 -6 6 -16 c3 -10 31 -43 62 -74 l55 -58 18 0 18 0 0 13 0 13 -67 67 c-65 66 -74 73 -86 61z"></path><path id="pDYSAXgJZ" d="M5820 3242 l0 -19 66 -61 c36 -34 69 -62 75 -62 l9 0 0 19 0 20 -62 60 -63 61 -12 0 -13 0 0 -18z"></path><path id="p13Na8KsLK" d="M13957 3254 c-4 -4 -7 -14 -7 -23 l0 -16 227 -227 228 -228 11 0 12 0 5 13 5 14 -237 237 -237 237 -7 -7z"></path><path id="puPlVDClD" d="M14869 3244 l-13 -16 23 -19 c13 -11 27 -19 32 -19 l9 0 0 25 0 24 -19 10 -19 11 -13 -16z"></path><path id="p1FLlP0nFB" d="M1077 3213 c-4 -3 -7 -12 -7 -19 l0 -12 66 -63 c36 -35 72 -65 80 -67 l14 -3 0 17 0 18 -71 68 c-79 75 -73 71 -82 61z"></path><path id="pTqPnHCpb" d="M8460 3192 l0 -18 277 -277 277 -277 12 0 12 0 5 13 4 12 -284 283 c-156 155 -288 282 -293 282 l-10 0 0 -18z"></path><path id="pyhZKGl1f" d="M1275 3180 l-7 -12 233 -234 234 -234 13 0 12 0 0 19 0 19 -225 223 -226 224 -14 3 -13 3 -7 -11z"></path><path id="pJSl1Kqg2" d="M5720 3156 l0 -24 10 -4 c5 -1 252 -245 548 -540 l538 -538 12 0 12 0 -2 23 -1 22 -546 543 -547 542 -12 0 -12 0 0 -24z"></path><path id="p59uu7Jjw" d="M7767 3154 l-6 -7 9 -16 c9 -18 779 -788 801 -801 l13 -9 8 5 c15 9 8 29 -20 57 -315 317 -782 777 -789 777 -5 0 -13 -3 -16 -6z"></path><path id="pazeZ1s5Z" d="M14787 3153 c-4 -3 -7 -12 -7 -18 l0 -11 61 -62 62 -62 13 0 14 0 0 17 0 16 -62 64 c-64 64 -70 68 -81 56z"></path><path id="p1Ef1hZvO9" d="M4276 3143 c-13 -13 -4 -26 58 -88 l65 -65 16 6 16 6 -16 24 c-16 24 -97 103 -120 116 l-12 7 -7 -6z"></path><path id="pj3ETNou6" d="M4853 3114 l-6 -15 39 -41 c22 -23 84 -85 138 -140 l99 -98 14 0 13 0 0 16 0 16 -139 139 c-77 76 -143 139 -146 139 -3 0 -8 -7 -12 -16z"></path><path id="pSl2OSa6V" d="M8370 3093 l0 -17 278 -278 277 -278 18 0 17 0 0 13 0 12 -230 230 c-127 127 -254 254 -282 283 l-51 52 -14 0 -13 0 0 -17z"></path><path id="p6obigg2m" d="M14647 3103 c-13 -12 -7 -21 59 -88 l65 -66 12 4 c6 2 12 8 14 14 l4 11 -68 66 c-68 67 -74 71 -86 59z"></path><path id="ppwJEXZr5" d="M5624 3077 l-5 -13 571 -570 570 -569 14 -3 14 -3 7 11 7 11 -576 574 -575 575 -11 0 c-6 0 -13 -6 -16 -13z"></path><path id="pzauc7Guo" d="M4170 3049 c0 -13 129 -149 142 -149 5 0 11 7 15 15 l5 16 -63 64 -64 65 -17 0 -18 0 0 -11z"></path><path id="pjdlsTdXz" d="M4756 3024 l-6 -16 62 -64 62 -65 15 3 c8 2 16 8 18 13 l3 10 -65 68 c-36 37 -70 67 -74 67 -5 0 -12 -7 -15 -16z"></path><path id="p16v6Jir7o" d="M1270 3003 c0 -16 23 -42 171 -190 l153 -153 13 0 13 0 0 18 0 17 -159 158 -159 157 -16 0 -16 0 0 -7z"></path><path id="p6Or3ITdS" d="M4617 2993 c-4 -3 -7 -12 -7 -18 l0 -11 155 -154 c85 -85 162 -158 170 -163 l15 -8 6 16 7 16 -166 165 c-91 90 -167 164 -169 164 -3 0 -8 -3 -11 -7z"></path><path id="pxIyezQIz" d="M5530 2981 l0 -20 14 -13 c8 -7 297 -295 643 -640 l629 -628 12 0 12 0 0 25 0 24 -14 8 c-18 10 -85 74 -198 189 -48 49 -309 311 -581 582 l-494 492 -11 0 -12 0 0 -19z"></path><path id="p1DX5bjN9C" d="M6647 2993 c-4 -3 -7 -12 -7 -19 l0 -13 111 -108 110 -108 15 -3 14 -3 0 16 0 17 -115 114 c-64 63 -117 114 -119 114 -1 0 -6 -3 -9 -7z"></path><path id="pKdltXsOj" d="M6857 2963 c-4 -3 -7 -10 -7 -15 0 -12 150 -167 174 -180 l18 -10 11 11 11 11 -94 95 c-95 96 -101 100 -113 88z"></path><path id="pA4g4CT94" d="M1180 2910 l0 -20 111 -110 111 -111 11 4 c7 2 12 9 12 15 l0 11 -108 110 c-60 60 -115 112 -123 115 l-14 5 0 -19z"></path><path id="p1fHkkz1k" d="M5480 2846 l0 -14 640 -638 640 -639 20 -3 20 -3 0 12 0 13 -644 643 -644 643 -16 0 -16 0 0 -14z"></path><path id="pKNT46KrR" d="M6600 2836 l0 -25 21 -6 21 -7 5 6 6 6 -11 25 -12 25 -15 0 -15 0 0 -24z"></path><path id="pblqhu4tD" d="M4950 2822 l0 -19 64 -61 c35 -34 69 -62 75 -62 l11 0 0 18 0 18 -60 62 -61 62 -14 0 -15 0 0 -18z"></path><path id="pFd0p4cpR" d="M8477 2814 l-6 -6 5 -13 c3 -6 75 -82 161 -169 l156 -156 14 0 13 0 0 18 0 17 -158 158 c-149 148 -170 165 -185 151z"></path><path id="pNjNKay2s" d="M9030 2805 l0 -17 62 -64 62 -64 10 3 11 4 0 15 0 16 -52 55 -53 56 -20 6 -20 6 0 -16z"></path><path id="pnxBoPYjm" d="M4610 2794 l0 -16 136 -134 135 -135 11 3 c7 3 13 9 15 14 l3 10 -135 137 -136 137 -15 0 -14 0 0 -16z"></path><path id="pS0wG8AJl" d="M3357 2773 c-15 -14 -3 -29 106 -139 l112 -114 13 0 12 0 0 19 0 18 -111 112 c-111 110 -120 117 -132 104z"></path><path id="p13Lrrvg3u" d="M10370 2755 l0 -17 425 -425 426 -425 14 6 c8 3 15 10 15 15 0 5 -191 200 -425 433 l-425 423 -15 3 -15 3 0 -16z"></path><path id="p1AouPZw0P" d="M3213 2733 c-7 -2 -13 -8 -13 -12 0 -4 63 -72 141 -149 l141 -142 9 6 c5 3 9 13 9 22 l0 16 -132 133 c-73 73 -135 133 -138 132 -3 0 -11 -3 -17 -6z"></path><path id="pXbrBxdHT" d="M14473 2714 l-6 -15 39 -40 38 -39 18 0 18 0 0 13 c-1 15 -62 82 -84 90 l-17 7 -6 -16z"></path><path id="prGwaj4PG" d="M14660 2707 l0 -23 12 -12 c7 -7 18 -12 25 -12 l14 0 6 15 5 16 -17 19 -18 20 -14 0 -13 0 0 -23z"></path><path id="pGZ4XLJtE" d="M3602 2693 l3 -28 23 -3 22 -3 0 18 0 19 -12 12 c-7 7 -18 12 -26 12 l-13 0 3 -27z"></path><path id="pAEaZ8k90" d="M5480 2666 l0 -15 742 -740 c408 -408 746 -741 750 -741 5 0 11 6 14 14 l6 15 -743 740 -743 741 -13 0 -13 0 0 -14z"></path><path id="pbKDonLyu" d="M4220 2628 l0 -13 158 -158 158 -157 17 0 17 0 0 14 0 14 -155 153 -156 154 -19 3 -20 3 0 -13z"></path><path id="poRkdoECP" d="M6450 2619 l0 -21 111 -110 110 -110 15 6 c8 3 14 9 14 14 0 5 -51 61 -114 126 l-114 116 -11 0 -11 0 0 -21z"></path><path id="p1CDjguhDT" d="M4613 2614 l-6 -16 114 -114 114 -114 12 0 13 0 0 18 0 17 -113 113 c-62 61 -116 112 -120 112 -4 0 -10 -7 -14 -16z"></path><path id="plgvYPjwX" d="M2965 2599 l-7 -10 113 -115 113 -114 12 0 c7 0 16 5 20 11 l7 11 -114 114 -114 114 -12 0 c-6 0 -15 -5 -18 -11z"></path><path id="p10ZG2zNF3" d="M9454 2569 l-6 -11 28 -31 c39 -42 57 -56 72 -57 l12 0 0 14 0 14 -37 41 -36 41 -13 0 c-7 0 -16 -5 -20 -11z"></path><path id="p18jk0x8Ct" d="M2820 2553 l0 -16 109 -109 109 -108 16 0 16 0 0 16 0 17 -109 108 -109 109 -16 0 -16 0 0 -17z"></path><path id="p18c786KKl" d="M4137 2553 c-4 -3 -7 -12 -7 -19 l0 -13 156 -155 155 -156 14 0 c8 0 17 4 20 10 l6 10 -165 165 c-90 91 -166 165 -169 165 -2 0 -7 -3 -10 -7z"></path><path id="p11EkucmCN" d="M5440 2535 l-11 -14 11 -20 11 -21 14 0 c7 0 17 5 20 10 l6 10 -6 19 -6 19 -14 5 -14 6 -11 -14z"></path><path id="pt0QoOXWT" d="M4513 2524 l-6 -15 94 -89 c52 -49 98 -90 102 -90 4 0 10 6 13 14 l6 15 -93 90 c-52 50 -97 91 -102 91 -4 0 -10 -7 -14 -16z"></path><path id="pODnZtTIH" d="M2680 2514 l0 -17 134 -133 c74 -74 138 -134 144 -134 5 0 12 6 15 14 l5 13 -136 137 -136 136 -13 0 -13 0 0 -16z"></path><path id="pgziDU8BJ" d="M3793 2514 l-6 -16 64 -64 63 -64 13 0 13 0 0 18 0 18 -63 62 c-34 34 -66 62 -70 62 -4 0 -10 -7 -14 -16z"></path><path id="p5TrHSOhP" d="M8210 2519 c0 -6 5 -19 10 -30 l11 -19 14 0 c7 0 17 4 20 10 l6 10 -11 20 -11 20 -19 0 -20 0 0 -11z"></path><path id="pVycCLgKc" d="M9870 2511 l0 -19 15 -12 15 -12 15 6 c8 3 15 10 15 15 0 14 -30 41 -46 41 l-14 0 0 -19z"></path><path id="pzd0TptFz" d="M10240 2514 l0 -16 61 -59 61 -59 13 0 c8 0 16 4 19 8 l5 8 -66 67 -65 67 -14 0 -14 0 0 -16z"></path><path id="p14A3RIqtE" d="M10425 2519 l-7 -10 113 -115 114 -114 12 0 c6 0 15 5 18 10 l6 10 -113 115 -113 115 -12 0 c-6 0 -15 -5 -18 -11z"></path><path id="p11CPgZiRp" d="M3646 2474 l-6 -15 64 -66 65 -66 15 6 c25 10 20 21 -48 91 -68 69 -80 76 -90 50z"></path><path id="p18I1JfQgg" d="M9740 2461 l0 -19 15 -12 15 -12 15 12 14 12 -12 19 -12 19 -17 0 -18 0 0 -19z"></path><path id="pnA02G8G1" d="M4030 2454 l0 -16 210 -210 209 -210 16 6 16 6 -8 15 c-5 9 -101 108 -213 220 l-204 205 -13 0 -13 0 0 -16z"></path><path id="prIh7mxRx" d="M5537 2443 c-4 -3 -7 -12 -7 -20 l0 -13 48 -45 c26 -26 281 -280 567 -566 l521 -519 17 0 17 0 0 13 0 14 -55 54 c-31 30 -289 287 -574 572 -286 284 -521 517 -523 517 -3 0 -8 -3 -11 -7z"></path><path id="p1nfuJEAw" d="M10153 2424 l-6 -16 114 -114 114 -114 12 0 13 0 0 18 0 19 -32 30 c-18 17 -68 67 -112 112 -43 44 -83 81 -88 81 -5 0 -11 -7 -15 -16z"></path><path id="p1G6tBmFqf" d="M5387 2403 c-4 -3 -7 -11 -7 -16 0 -5 280 -288 621 -628 l621 -619 14 0 14 0 0 15 0 15 -621 620 c-342 341 -624 620 -628 620 -4 0 -11 -3 -14 -7z"></path><path id="pbPtYkdch" d="M3550 2382 l0 -17 89 -89 89 -88 11 6 c6 4 11 13 11 19 l0 12 -88 88 -87 87 -13 0 -12 0 0 -18z"></path><path id="pjC2tNn6H" d="M9650 2373 l0 -18 36 -37 35 -38 15 0 14 0 0 16 0 16 -37 39 -37 39 -13 0 -13 0 0 -17z"></path><path id="pTy5KYKyk" d="M2686 2343 c-3 -3 -6 -14 -6 -23 l0 -16 42 -32 42 -32 9 9 10 10 -27 35 c-15 20 -35 40 -45 46 l-18 9 -7 -6z"></path><path id="pVWGsjb0e" d="M10436 2324 l-6 -17 11 -13 11 -14 19 0 19 0 0 18 0 18 -12 12 c-7 7 -17 12 -24 12 l-12 0 -6 -16z"></path><path id="p12lerYp0J" d="M13017 2325 l-6 -14 42 -41 42 -40 13 0 12 0 0 18 0 18 -40 37 c-45 41 -55 44 -63 22z"></path><path id="pyE0crpqh" d="M3840 2277 l0 -23 38 -35 37 -36 13 4 12 5 0 16 0 16 -42 38 c-23 21 -46 38 -50 38 l-8 0 0 -23z"></path><path id="pPggJ2PCM" d="M9560 2273 l0 -18 187 -183 187 -182 10 3 c6 2 11 9 11 15 l0 11 -184 186 -185 185 -13 0 -13 0 0 -17z"></path><path id="pAMFuskHx" d="M3167 2233 c-4 -3 -7 -13 -7 -21 l0 -15 108 -108 107 -109 11 0 12 0 6 16 6 15 -115 115 c-62 63 -116 114 -118 114 -2 0 -7 -3 -10 -7z"></path><path id="p0Di5dF36" d="M10717 2226 l-5 -13 42 -42 42 -41 12 0 12 0 0 18 0 18 -38 37 c-40 39 -57 45 -65 23z"></path><path id="p13iTSnQjG" d="M12930 2222 l0 -19 83 -77 c95 -90 94 -89 107 -81 l10 6 -9 17 c-5 10 -44 52 -87 95 l-78 77 -13 0 -13 0 0 -18z"></path><path id="p44UFpOzf" d="M13300 2225 l0 -16 37 -39 36 -40 14 0 13 0 0 18 0 17 -34 38 -34 37 -16 0 -16 0 0 -15z"></path><path id="psJAFSVr9" d="M5380 2209 l0 -12 549 -548 549 -549 11 0 11 0 0 25 0 24 -16 9 c-9 5 -253 246 -543 535 l-527 527 -17 0 -17 0 0 -11z"></path><path id="p14SGVsFIU" d="M3020 2184 l-13 -15 64 -64 64 -65 12 0 c6 0 15 4 18 10 l6 10 -8 13 c-4 8 -36 39 -69 71 l-62 56 -12 -16z"></path><path id="pw0uV9Fss" d="M13163 2184 l-6 -17 10 -16 10 -16 17 -3 16 -3 6 16 6 16 -17 19 c-22 24 -34 25 -42 4z"></path><path id="pb57ouS5A" d="M3797 2153 c-12 -12 -7 -22 29 -63 l36 -40 14 0 c7 0 16 4 19 10 l6 10 -42 45 c-42 45 -50 50 -62 38z"></path><path id="pnahGb7SY" d="M3983 2135 l-6 -16 68 -64 68 -63 13 5 c8 3 14 9 14 13 0 11 -131 140 -142 140 -5 0 -11 -7 -15 -15z"></path><path id="pdZNtQTh" d="M4174 2129 l-6 -11 58 -60 c33 -33 66 -64 76 -69 l16 -9 6 16 6 16 -62 64 -61 64 -13 0 c-7 0 -16 -5 -20 -11z"></path><path id="p19jK95NaJ" d="M11920 2125 l0 -15 38 -35 c38 -35 56 -42 67 -25 l6 9 -37 41 -36 40 -19 0 -19 0 0 -15z"></path><path id="pBiVtkepO" d="M3450 2113 l0 -18 63 -62 63 -63 12 0 12 0 0 18 0 18 -63 62 -63 62 -12 0 -12 0 0 -17z"></path><path id="pqy0ZzypS" d="M3640 2107 l0 -13 87 -87 86 -87 14 0 13 0 0 16 0 16 -82 84 -83 84 -17 0 -18 0 0 -13z"></path><path id="p11bOMFXsv" d="M2920 2089 l0 -22 48 -44 c52 -50 83 -73 94 -73 l8 0 0 16 0 16 -65 64 c-36 35 -70 64 -75 64 l-10 0 0 -21z"></path><path id="pp71EFgEV" d="M12895 2090 l-6 -10 6 -20 6 -20 19 0 19 0 6 11 7 10 -18 20 c-19 21 -30 24 -39 9z"></path><path id="p15D4wVQDw" d="M5340 2070 l0 -20 477 -475 c262 -261 480 -475 485 -475 5 0 11 7 14 14 l6 15 -482 480 c-264 265 -485 481 -490 481 l-10 0 0 -20z"></path><path id="pwIKkaGfw" d="M9990 2031 l0 -19 106 -104 105 -103 20 -3 19 -3 0 12 0 12 -114 114 -114 113 -11 0 -11 0 0 -19z"></path><path id="py8uYTRsO" d="M2820 2002 l0 -18 12 -12 12 -12 18 0 18 0 0 18 0 18 -12 12 -12 12 -18 0 -18 0 0 -18z"></path><path id="pW8UkPRXW" d="M3930 2000 c0 -5 16 -28 36 -50 l36 -40 19 0 19 0 0 13 0 13 -38 37 -38 37 -17 0 -17 0 0 -10z"></path><path id="pdJDAFQPR" d="M5240 1983 l0 -18 440 -439 439 -438 13 4 13 5 0 12 0 13 -440 439 -440 439 -12 0 -13 0 0 -17z"></path><path id="pPVbUlrhM" d="M10962 1979 l3 -22 17 -11 17 -10 7 6 6 7 -6 26 -6 25 -21 0 -20 0 3 -21z"></path><path id="plhXhcsj0" d="M4180 1940 l0 -19 375 -376 376 -375 14 0 15 0 0 15 0 15 -382 380 c-210 209 -385 380 -390 380 l-8 0 0 -20z"></path><path id="pzY5pib61" d="M4373 1934 l-6 -16 135 -134 134 -134 12 0 12 0 0 18 0 19 -125 124 c-69 68 -132 127 -140 132 l-15 8 -7 -17z"></path><path id="p18sDkx74K" d="M3450 1921 l0 -20 21 -12 21 -11 11 11 12 12 -11 17 -11 17 -22 3 -21 3 0 -20z"></path><path id="p9yOZX2po" d="M3116 1904 c-3 -9 -6 -17 -6 -18 0 -2 28 -31 62 -65 l62 -61 13 0 13 0 0 16 0 17 -64 63 c-35 35 -66 64 -69 64 -3 0 -8 -7 -11 -16z"></path><path id="p1FxrnBsgw" d="M4950 1903 l0 -18 355 -353 354 -354 11 7 c5 3 10 12 10 19 l0 12 -350 350 -349 349 -16 3 -15 3 0 -18z"></path><path id="p13Th4nj0v" d="M5145 1899 l-7 -11 383 -384 c211 -211 388 -384 392 -384 4 0 10 7 14 16 l6 16 -382 379 c-210 209 -386 379 -391 379 -5 0 -12 -5 -15 -11z"></path><path id="pbOnBUXBL" d="M3887 1867 l-5 -13 13 -17 12 -17 17 0 16 0 0 18 0 18 -12 12 c-7 7 -17 12 -24 12 l-12 0 -5 -13z"></path><path id="pZhrN5hOX" d="M4802 1865 l3 -15 304 -305 304 -305 13 0 14 0 0 17 0 17 -304 303 -303 303 -17 0 -17 0 3 -15z"></path><path id="poo7hv7Po" d="M4080 1852 l0 -18 325 -324 325 -325 15 -3 15 -3 0 18 0 18 -328 328 -327 327 -13 0 -12 0 0 -18z"></path><path id="p83vNHvwZ" d="M11474 1845 l-6 -15 12 -15 12 -15 18 0 18 0 -6 23 c-9 36 -38 49 -48 22z"></path><path id="pVlwDVWct" d="M3743 1824 l-6 -15 39 -40 38 -39 13 0 13 0 0 18 0 18 -38 37 c-42 41 -50 44 -59 21z"></path><path id="pOqgXOQkW" d="M3600 1781 l0 -18 60 -62 c32 -33 64 -61 70 -61 l11 0 6 16 6 16 -64 64 -63 64 -13 0 -13 0 0 -19z"></path><path id="pVEsmJA8Z" d="M4705 1780 l-6 -10 92 -91 92 -90 11 4 c6 2 11 9 11 15 l0 11 -84 85 -84 86 -13 0 c-7 0 -16 -5 -19 -10z"></path><path id="p10IGdnUxw" d="M3985 1769 c-4 -6 -5 -12 -4 -14 2 -3 42 -43 88 -90 l84 -85 14 0 13 0 0 16 0 16 -84 84 c-84 84 -99 94 -111 73z"></path><path id="pFBI1hmMT" d="M3450 1746 l0 -14 28 -29 c15 -16 37 -35 48 -41 l21 -11 7 6 c11 12 6 22 -32 63 l-39 40 -16 0 -17 0 0 -14z"></path><path id="p1EsZyYmC7" d="M11570 1742 l0 -18 38 -37 38 -37 12 0 12 0 0 18 0 18 -38 37 -38 37 -12 0 -12 0 0 -18z"></path><path id="p4LkjoxLx" d="M11440 1688 l0 -21 60 -59 61 -59 9 6 c6 3 10 12 10 20 l0 14 -59 60 -58 61 -12 0 -11 0 0 -22z"></path><path id="p1CYYjOV1Y" d="M11300 1643 l0 -18 59 -59 59 -59 16 6 c26 10 20 21 -46 86 l-63 61 -12 0 -13 0 0 -17z"></path><path id="pyowwXuTZ" d="M3936 1634 l-7 -17 158 -159 158 -158 18 0 17 0 0 13 0 13 -160 159 c-87 88 -163 161 -168 163 l-10 3 -6 -17z"></path><path id="pENcW3ruI" d="M3602 1592 l3 -27 23 -3 24 -4 -4 23 -3 22 -23 8 -23 9 3 -28z"></path><path id="pOLR2JVUt" d="M11167 1613 c-4 -3 -7 -12 -7 -20 l0 -13 87 -85 88 -85 12 0 13 0 0 15 0 14 -90 91 c-94 95 -93 94 -103 83z"></path><path id="p4itHlTv0" d="M3790 1589 l0 -12 103 -106 c130 -135 132 -136 143 -106 l6 15 -108 110 -109 110 -17 0 -18 0 0 -11z"></path><path id="pu8qYEam5" d="M4756 1551 l-6 -9 19 -23 20 -24 11 11 12 12 -7 21 -6 21 -19 0 -19 0 -5 -9z"></path><path id="pVZu3kocf" d="M4224 1526 l-6 -14 162 -159 161 -158 14 -3 15 -3 0 16 0 17 -159 159 -158 159 -12 0 -12 0 -5 -14z"></path><path id="p1FuKuNI1E" d="M5007 1503 c-4 -3 -7 -12 -7 -19 l0 -13 85 -85 84 -86 16 0 15 0 0 15 0 15 -92 90 c-50 50 -92 90 -93 90 -1 0 -5 -3 -8 -7z"></path><path id="p1E2sV0FgW" d="M11127 1474 c-4 -4 -7 -18 -7 -30 l0 -23 21 -6 21 -7 11 11 11 11 -25 25 -25 26 -7 -7z"></path><path id="pslqblBpD" d="M4850 1452 l0 -18 113 -112 114 -112 12 0 12 0 -3 20 -3 19 -109 111 -108 110 -14 0 -14 0 0 -18z"></path><path id="p1Abd9IR5a" d="M9326 1423 c-3 -3 -6 -14 -6 -23 l0 -16 40 -37 c45 -41 58 -45 67 -21 l6 15 -34 35 c-19 19 -41 39 -50 44 l-16 9 -7 -6z"></path><path id="p1HZ40b7Mq" d="M9510 1403 c0 -23 7 -32 49 -66 l33 -28 15 12 14 12 -43 44 -42 43 -13 0 -13 0 0 -17z"></path><path id="pg2k7SUwl" d="M9695 1410 l-7 -11 84 -87 c46 -48 88 -90 93 -94 l10 -7 15 14 14 15 -89 90 -90 89 -12 1 c-6 0 -15 -5 -18 -10z"></path><path id="p199H2cLXh" d="M9880 1402 l0 -18 39 -38 39 -38 11 6 c6 4 11 13 11 20 l0 12 -38 37 -38 37 -12 0 -12 0 0 -18z"></path><path id="pN1WAgyKm" d="M10060 1403 l0 -16 40 -40 40 -39 15 6 c23 8 19 19 -25 64 l-39 42 -16 0 -15 0 0 -17z"></path><path id="pXZaYrUfe" d="M10985 1410 l-6 -9 13 -21 13 -20 17 0 18 0 0 18 0 18 -12 12 c-14 14 -35 16 -43 2z"></path><path id="pn7Udzyqp" d="M6980 1353 l0 -18 60 -62 59 -63 15 0 14 0 5 14 6 14 -69 66 c-37 36 -73 66 -79 66 l-11 0 0 -17z"></path></g></g></svg>